<svg id="Layer_1_copy" data-name="Layer 1 copy" xmlns="http://www.w3.org/2000/svg" viewBox="0 0 1200 912.8">
  <defs>
    <style>
      .cls-1 {
        fill: #262729;
      }
    </style>
  </defs>
  <title>to the moon logo</title><path class="cls-1" d="M34.8,960.7H2.7V940.6h85v20.1H55.6v93.4H34.8Z" transform="translate(0 -143.6)"/><path
    class="cls-1"
    d="M134.1,1049a51.5,51.5,0,0,1-19.9-20.7q-7.2-13.5-7.2-30.9t7.2-30.9a52.4,52.4,0,0,1,19.9-20.8,56.6,56.6,0,0,1,28.8-7.3,56.6,56.6,0,0,1,28.8,7.3,52.4,52.4,0,0,1,19.9,20.8q7.2,13.3,7.2,30.9t-7.2,30.9a51.5,51.5,0,0,1-19.9,20.7,59.7,59.7,0,0,1-57.6,0Zm54.2-23.4c5.9-7.2,8.8-16.6,8.8-28.2s-2.9-21.1-8.8-28.2-14.4-10.7-25.4-10.7-19.5,3.5-25.4,10.7-8.8,16.5-8.8,28.2,2.9,21,8.8,28.2,14.4,10.7,25.4,10.7S182.4,1032.7,188.3,1025.6Z"
    transform="translate(0 -143.6)"/><path class="cls-1" d="M322.1,960.7H290V940.6h85v20.1H342.9v93.4H322.1Z" transform="translate(0 -143.6)"/><path class="cls-1" d="M403.2,940.6h20.7v44.9h51.9V940.6h20.7v113.5H475.8V1005H423.9v49.1H403.2Z" transform="translate(0 -143.6)"/><path class="cls-1" d="M534.8,940.6h72.6v20.1H556v24.2h39.9V1005H556v29h53.1v20.1H534.8Z" transform="translate(0 -143.6)"/><path class="cls-1" d="M783.8,1054.1l-9.7-76-29,52.2-29.2-52.1-9.7,75.9H684.6l15.7-113.5h17.1l27.7,51.7,27.5-51.7h17.1l15.7,113.5Z" transform="translate(0 -143.6)"/><path
    class="cls-1"
    d="M857.7,1049a51.8,51.8,0,0,1-20-20.7q-7.2-13.5-7.2-30.9t7.2-30.9a52.7,52.7,0,0,1,20-20.8,60.3,60.3,0,0,1,57.5,0,52.7,52.7,0,0,1,20,20.8q7.2,13.3,7.2,30.9t-7.2,30.9a51.8,51.8,0,0,1-20,20.7,59.5,59.5,0,0,1-57.5,0Zm54.1-23.4c5.9-7.2,8.9-16.6,8.9-28.2s-3-21.1-8.9-28.2-14.3-10.7-25.3-10.7S867,962,861.1,969.2s-8.9,16.5-8.9,28.2,3,21,8.9,28.2,14.3,10.7,25.4,10.7S905.9,1032.7,911.8,1025.6Z"
    transform="translate(0 -143.6)"/><path
    class="cls-1"
    d="M994.2,1049a51.8,51.8,0,0,1-20-20.7q-7.2-13.5-7.2-30.9t7.2-30.9a52.7,52.7,0,0,1,20-20.8,56.6,56.6,0,0,1,28.8-7.3c10.7,0,20.3,2.4,28.7,7.3a52.7,52.7,0,0,1,20,20.8q7.2,13.3,7.2,30.9t-7.2,30.9a51.8,51.8,0,0,1-20,20.7,56,56,0,0,1-28.7,7.4A56.6,56.6,0,0,1,994.2,1049Zm54.1-23.4c5.9-7.2,8.9-16.6,8.9-28.2s-3-21.1-8.9-28.2-14.3-10.7-25.3-10.7-19.5,3.5-25.4,10.7-8.8,16.5-8.8,28.2,2.9,21,8.8,28.2,14.3,10.7,25.4,10.7S1042.4,1032.7,1048.3,1025.6Z"
    transform="translate(0 -143.6)"/><path class="cls-1" d="M1110.3,940.6h20.5l48.4,73.3V940.6H1200v113.5h-17l-51.9-77.8v77.8h-20.8Z" transform="translate(0 -143.6)"/><path class="cls-1" d="M1147.5,799.5a149.3,149.3,0,0,1-206.6,42.6c-68.6-45.2-87.7-137.8-42.5-206.5s137.8-87.8,206.5-42.6a149.3,149.3,0,0,1,42.6,206.5Z" transform="translate(0 -143.6)"/><path class="cls-1" d="M395.7,408.9h-.1l2.3,1.4.9.5L658,574.1h0Z" transform="translate(0 -143.6)"/><path class="cls-1" d="M641,603.7,635,627l6.1-23.3Z" transform="translate(0 -143.6)"/><path class="cls-1" d="M498.8,485.8l148.7,93.6h0Z" transform="translate(0 -143.6)"/><circle class="cls-1" cx="685" cy="352.9" r="6" transform="translate(21.6 601.1) rotate(-57.8)"/><circle class="cls-1" cx="789" cy="416.9" r="6" transform="matrix(0.53, -0.85, 0.85, 0.53, 15.97, 719.07)"/><path class="cls-1" d="M390,756.1l-1.3-.7.4.2.9.5,4.8,2.8Z" transform="translate(0 -143.6)"/><path
    class="cls-1"
    d="M761.6,570.1l-1.6.3-1.7.4h.6l2.8-.6ZM885.4,422.4c0,1.1-.1,2.3-.2,3.4h0l.2.2v-7C885.5,420.2,885.4,421.3,885.4,422.4ZM749.2,562.2h-.1l-16.4-10.4h-.5l16.7,10.4Zm-149-94.7a94.9,94.9,0,0,1-30.5-31.3c.9,1.6,1.8,3.1,2.8,4.6a94.4,94.4,0,0,0,27.9,27.3l93.8,59.2Z"
    transform="translate(0 -143.6)"/><path
    class="cls-1"
    d="M829.4,391.4h0l45.9,29A148.2,148.2,0,0,1,749.1,562.1h-.2l-16.6-10.5h-.1l16.7,10.4h.3l4.7-.8c3.8-.7,7.7-1.6,11.4-2.6l4.5-1.2,2.2-.7c1.5-.5,3-.9,4.4-1.5l4.4-1.6a147.2,147.2,0,0,0,14.6-6.5l4-2.2A144.5,144.5,0,0,0,848.3,501c.9-1.2,1.8-2.5,2.6-3.8a21.4,21.4,0,0,0,1.3-1.9c.8-1.4,1.7-2.7,2.4-4l2.4-4.1c1.8-3.4,3.6-6.9,5.2-10.6a113.1,113.1,0,0,0,5.4-13.6,147,147,0,0,0,7.8-42.6Zm56.1,23.5v0Zm-.4,10.9a158.1,158.1,0,0,1-44.8,100.5c-2.1,2.2-4.3,4.3-6.5,6.4a159,159,0,0,1-72.2,37.4l-1.6.3-1.7.4h.6l2.8-.6a157.4,157.4,0,0,0,109.7-89.3,155.3,155.3,0,0,0,13.8-55ZM748.4,571.6l-2.8.4,10.8-1,1.9-.2Z"
    transform="translate(0 -143.6)"/><path class="cls-1" d="M748.4,571.6l-2.8.4,10.8-1,1.9-.2Z" transform="translate(0 -143.6)"/><path class="cls-1" d="M862.2,476.6c-1.6,3.7-3.4,7.2-5.2,10.6,1.8-3.4,3.6-6.9,5.2-10.6a113.1,113.1,0,0,0,5.4-13.6A113.1,113.1,0,0,1,862.2,476.6ZM758.3,570.8l-9.9.8,8-.6,1.9-.2h.1l1.6-.4Zm-9.1-8.6h0l4.7-.8Z" transform="translate(0 -143.6)"/><path
    class="cls-1"
    d="M851.1,315.9l-.7-.8L758.5,212.5c-51.1-58.3-132.3-82.4-206.9-61.4-78.9,22-133.9,88.5-145.5,164.9l-14.3-8.4a43.3,43.3,0,0,0-33.2-4.5,42.7,42.7,0,0,0-26.5,20.3l-43.9,76a45.7,45.7,0,0,0,11.1,58.3,93.1,93.1,0,0,0-10.7,24.2,105,105,0,0,0-3,17.5c-.1.2-.3.3-.5.5-4.2-4.2-16.1-10-22-5.6-2.9,2.1-4.2,6.2-4.1,12.2.1,1.5.3,6,1.9,9.4l-8.1,3.6c-3.5-4.8-14-12.2-20.5-9s-7.2,13.4-6.1,19.9h0c-7.4,2.8-14.8,5.5-22.3,8a30.7,30.7,0,0,0-5.8-7c-4.5-4.1-8.6-5.8-12.1-4.8-6.6,1.8-10.5,14.2-9.7,20.3-8.2,2.4-16.5,4.5-24.8,6.4-2.5-5.7-10.4-14.7-17-13.5s-11.5,13.3-11.3,19.5q-9.9,1.8-19.8,3.3c-2-5.6-10.5-15.9-17.4-14.6-3.5.7-6.5,3.8-8.9,9.3a26.9,26.9,0,0,0-2.5,8.8c-6.3.6-12.6,1.2-19,1.6-1.6-6-8-16.2-14.9-15.8-3.5.1-7,2.8-10.2,7.9-.8,1.3-3.2,5.4-3.7,9.3l-19.5.7a7.5,7.5,0,0,0-3.5,14,561.5,561.5,0,0,0,118.1,49.8A556.3,556.3,0,0,0,248.3,655l40.7,2.1a92.1,92.1,0,0,1-42.3,23.1L190,693.9c-91.4,22.3-91.4,22.3-92.9,24.2S83.7,747.3,75,768.8a7.6,7.6,0,0,0,4.3,10.4,25.2,25.2,0,0,0,10,2,26.8,26.8,0,0,0,26.6-22.9l2.4-15.7,106,22.2a200.4,200.4,0,0,0,142.2-23.4l5.3,3.4-63.4,32.6c-54.9,28.3-54.9,28.3-55.7,29.4l-.2.3-23.1,47.2a7.8,7.8,0,0,0,3.7,10.8,26.9,26.9,0,0,0,11.3,2.5A27.2,27.2,0,0,0,266.6,856a27.9,27.9,0,0,0,4.2-10l3.9-18.9,111.7-3.3a201,201,0,0,0,126-49.6A171.9,171.9,0,0,0,639.2,650.5l2.4-8.9L738,624.7a9.9,9.9,0,0,0,8.1-10.4,10.1,10.1,0,0,0-10-9.4l-84.6-1,5.2-19.7h1.8a10.9,10.9,0,0,0,9.3-5.2,11.5,11.5,0,0,0,1.4-8.3,10.7,10.7,0,0,0-1.3-3.1,10.9,10.9,0,0,0,1.3-1.7,11.7,11.7,0,0,0,1.4-3.3,157.7,157.7,0,0,0,56.3,10.4,142.5,142.5,0,0,0,18.5-1.1h.2l2.8-.4,9.9-.8,1.7-.4,1.6-.3a159,159,0,0,0,72.2-37.4c2.2-2.1,4.4-4.2,6.5-6.4a158.1,158.1,0,0,0,44.8-100.5h.1c.1-1.1.2-2.3.2-3.4s.1-2.3.1-3.4v-4.1A158.8,158.8,0,0,0,851.1,315.9ZM297.5,404.8l43.9-76a32.7,32.7,0,0,1,44.9-11.9l18.4,10.8a199.1,199.1,0,0,0,3.9,61.3l-1.2-.5a11,11,0,0,0-13.2,4.5,13.1,13.1,0,0,0-1.5,3.7,10.9,10.9,0,0,0-5.8,18.2,91.2,91.2,0,0,0-29.4,1.7,92.6,92.6,0,0,0-51.9,32.2A34.7,34.7,0,0,1,297.5,404.8Zm93.7,71.5a30.1,30.1,0,0,0-34.3,4.7l-41-25.7a78.8,78.8,0,0,1,26.5-20.8,83.4,83.4,0,0,1,14.7-5.4l3-.7a58.9,58.9,0,0,1,7.1-1.3l4.5-.4a57.2,57.2,0,0,1,5.8-.2,92.3,92.3,0,0,1,11.8.8,79.3,79.3,0,0,1,31.1,11.8l66.8,42.6-36.9,57.8-44.2-27.7A29.8,29.8,0,0,0,391.2,476.3Zm-93.7,26.5a82.5,82.5,0,0,1,1.8-14c.3-1,.5-1.9.7-2.9s.9-3,1.4-4.5a99,99,0,0,1,3.8-9.5,73.7,73.7,0,0,1,4.3-7.8l41,25.7a30,30,0,0,0,50.6,31.7l43.4,27.1-33,51.6h-.1l-10.9,14.9L334,572.8a78.9,78.9,0,0,1-34.7-49.7A77.2,77.2,0,0,1,297.5,502.8Zm-28.1.2a22.5,22.5,0,0,1,6.3,2.4,2.4,2.4,0,0,1-.9.6l-2.1,1.5-1.3,1-1.8,1.4A18.1,18.1,0,0,1,269.4,503ZM237,520.1a22.4,22.4,0,0,1,5.8,3.5l-.9.5-2.1.9h-.2l-3.6,1.4A21,21,0,0,1,237,520.1Zm-48.2,16.8a21.7,21.7,0,0,1,5,4.7l-1.1.2-2.4.5-1.6.5-2.2.6A21.8,21.8,0,0,1,188.8,536.9Zm-52.4,13.4a21.1,21.1,0,0,1,4.7,5.1h-1l-2.6.3a6.2,6.2,0,0,1-1.6.4l-2.3.4A26.1,26.1,0,0,1,136.4,550.3Zm-48.5,8.3a22.4,22.4,0,0,1,4.6,5h-1l-2.5.4-1.6.4a11.1,11.1,0,0,0-2.3.4A23,23,0,0,1,87.9,558.6Zm-46.8,4a25,25,0,0,1,3.9,5.6H43.9a10.5,10.5,0,0,0-2.5,0h-4A22.2,22.2,0,0,1,41.1,562.6ZM192.4,703.8,249.1,690a103.1,103.1,0,0,0,50.4-29c1.5-1.5,3-3.1,4.4-4.8a.1.1,0,0,1,.1-.1,5.9,5.9,0,0,0,1-4.1,5,5,0,0,1-.2-1.2v-.2c-.2-.9-.3-1.9-.5-2.8a209.9,209.9,0,0,1-.5-65.7,5.1,5.1,0,0,0-4.2-5.8,5,5,0,0,0-5.8,4.2,218.6,218.6,0,0,0-.3,63.6c.2,1.1.3,2.2.5,3.2l-45.1-2.4a540,540,0,0,1-124-21.1A547.5,547.5,0,0,1,17.2,579.6l22.3-.9a593.6,593.6,0,0,0,195.8-41h.1l8.7-3.5h0c8.2-3.4,16.3-6.9,24.3-10.6A74.8,74.8,0,0,0,285,513.1l.7-.5a86.2,86.2,0,0,0,1.9,13.1,90.3,90.3,0,0,0,39.9,57.2l65.9,42-30,40.9a143.8,143.8,0,0,1-115.5,58.6H197.5Zm122.3,81.8,67-34.5,3.8,2.3,1.2.8.5.3,1.5.9,1.3.7,4.8,2.8,7.4,3.7,7.6,3.4c2.2.9,4.3,1.8,6.6,2.6a143.4,143.4,0,0,1-37,14.3l-53.9,12.8Zm159,3.6a190.6,190.6,0,0,1-87.6,24.5l-39.9,1.1-10.1-9.3,46.1-10.8a155.2,155.2,0,0,0,49.4-21.3l3.1.7,2,.5,3.6.8,7.2,1.3,3.5.5,1.5.2c2.7.4,5.4.6,8.1.8l4.4.3,3.9.2h8c3.2-.1,6.3-.2,9.5-.5l3.2-.2,1.9-.2A167.6,167.6,0,0,1,473.7,789.2ZM641.1,603.7,635,627l-4.4,16.6-1.2,4.3A161.9,161.9,0,0,1,508.7,764.6a154.9,154.9,0,0,1-60.6,1.9q-3.2-.4-6.3-1.2c-4.1-.8-8.3-1.9-12.4-3.1l-1.2-.4-.7-.2-4.2-1.4c-3.3-1-6.5-2.3-9.7-3.6s-7-3.1-10.5-4.9l-3.4-1.8c-1.6-.8-3.1-1.7-4.6-2.6H395l-.7-.4-.4-.3a.5.5,0,0,1-.4-.2,4.7,4.7,0,0,1-.9-.6h-.1l-25.9-16.3-2.7,1.6a189.5,189.5,0,0,1-137.6,23.8L204,750.2l-3.5-13.8h47.4A156,156,0,0,0,373.1,673l30.4-41.6L421,607.6h.1v-.2l77.6-121.5h0l148.7,93.6h0Zm26.5,10.5,5.1,11.6-28.3,5,4.4-16.8Zm-8.4-40.4h-.1c-.2.4-.6.4-1,.3H658L398.8,410.9l-.9-.5-2.3-1.4-1.1-.8a1,1,0,0,1-.4-.5,1.1,1.1,0,0,1,.2-.7l8.5-8.6c.2-.4.7-.5,1.3-.3l253,159.2,3.2,2.1a.7.7,0,0,1,.4.5c.1.2-1.5,13-1.4,13.2A2,2,0,0,1,659.2,573.8Zm58.7-31.6-23.7-14.9-93.8-59.2a94.4,94.4,0,0,1-27.9-27.3c-1-1.5-2-3-2.9-4.6l-1.4-2.5-1.4-2.8-1.2-2.6a19.6,19.6,0,0,1-1.2-2.6l-1.1-2.7c-.5-1.3-1-2.6-1.4-3.9A93.3,93.3,0,0,1,700,310.2l113.7,71.7a110.8,110.8,0,0,1-5.9,108.5A108.9,108.9,0,0,1,783.1,518l-.3-.2-2.5-1.5-159-99a28.9,28.9,0,0,1-13.4-27.9,5.5,5.5,0,0,0-4.8-6,5.6,5.6,0,0,0-6,4.7,39.7,39.7,0,0,0,18.4,38.3l155.1,96.5,3,1.9-1.3.8A110.9,110.9,0,0,1,717.9,542.2ZM867.6,463a113.1,113.1,0,0,1-5.4,13.6c-1.6,3.7-3.4,7.2-5.2,10.6l-2.4,4.1c-.7,1.3-1.6,2.6-2.4,4a21.4,21.4,0,0,1-1.3,1.9c-.8,1.3-1.7,2.6-2.6,3.8a144.5,144.5,0,0,1-48.9,44.1l-4,2.2a147.2,147.2,0,0,1-14.6,6.5l-4.4,1.6c-1.4.6-2.9,1-4.4,1.5l-2.2.7-4.5,1.2c-3.7,1-7.6,1.9-11.4,2.6l-4.7.8h-.3l-16.7-10.4h.5a122.4,122.4,0,0,0,96.7-160.3h0l46,29A147,147,0,0,1,867.6,463Z"
    transform="translate(0 -143.6)"/><path
    class="cls-1"
    d="M599,568.7l-104.7-8.4a19.3,19.3,0,0,0-15,5.2,19.8,19.8,0,0,0,.3,29.2,20.3,20.3,0,0,0,13.2,5h2.1l104.7-11a9.7,9.7,0,0,0,8.7-9.9h0A10,10,0,0,0,599,568.7ZM493.8,589.5a9.2,9.2,0,0,1-7.4-2.4,9.5,9.5,0,0,1,6.3-16.7h.8l30.6,2.5,5.2,12.9Z"
    transform="translate(0 -143.6)"/><polygon class="cls-1" points="421.2 463.7 421.1 463.9 421.2 463.7 421.2 463.7"/></svg>
